<svg xmlns="http://www.w3.org/2000/svg" viewBox="0 0 215.52 214.28"><defs><style>.cls-1{fill:#1f4cbf;}.cls-2{fill:#0067ff;}</style></defs><title>Asset 3</title><g id="Layer_2" data-name="Layer 2"><g id="Layer_1-2" data-name="Layer 1"><polygon class="cls-1" points="0 146.22 0 160.04 20.2 180.25 0 200.45 0 214.28 13.82 214.28 34.03 194.07 54.23 214.28 68.06 214.28 68.06 200.45 47.85 180.25 68.06 160.04 68.06 146.22 54.23 146.22 34.03 166.42 13.82 146.22 0 146.22"/><polygon class="cls-1" points="147.46 0 147.46 13.82 167.67 34.03 147.46 54.23 147.46 68.06 161.29 68.06 181.49 47.85 201.7 68.06 215.52 68.06 215.52 54.23 195.32 34.03 215.52 13.82 215.52 0 201.7 0 181.49 20.2 161.29 0 147.46 0"/><polygon class="cls-2" points="51.05 73.26 51.05 125.02 17.02 125.02 17.02 73.26 0 73.26 0 124.31 17.02 141.32 68.06 141.32 68.06 73.26 51.05 73.26"/><polygon class="cls-2" points="124.78 0 124.78 51.75 90.75 51.75 90.75 0 73.73 0 73.73 51.05 90.75 68.06 141.79 68.06 141.79 0 124.78 0"/><polygon class="cls-2" points="51.05 0 0 0 0 68.06 17.02 68.06 17.02 16.31 51.05 16.31 51.05 68.06 68.06 68.06 68.06 17.02 51.05 0"/><path class="cls-2" d="M198.51,146.22h-51v51l17,17h51v-51Zm0,51.75h-34V162.52h34Z"/><polygon class="cls-2" points="141.79 162.52 141.79 146.22 73.73 146.22 73.73 214.28 141.79 214.28 141.79 197.97 90.75 197.97 90.75 188.16 141.08 188.16 141.08 171.97 90.75 171.97 90.75 162.52 141.79 162.52"/><polygon class="cls-2" points="215.13 89.18 215.13 72.88 147.07 72.88 147.07 140.93 215.13 140.93 215.13 124.63 164.09 124.63 164.09 114.82 214.43 114.82 214.43 98.63 164.09 98.63 164.09 89.18 215.13 89.18"/></g></g></svg>