<svg xmlns="http://www.w3.org/2000/svg" viewBox="0 0 362.98 68.06"><defs><style>.cls-1{fill:#73d2cf;}.cls-2{fill:#fff;}</style></defs><title>Asset 2</title><g id="Layer_2" data-name="Layer 2"><g id="Layer_1-2" data-name="Layer 1"><polygon class="cls-1" points="147.46 0 147.46 13.82 167.67 34.03 147.46 54.23 147.46 68.06 161.29 68.06 181.49 47.85 201.7 68.06 215.52 68.06 215.52 54.23 195.32 34.03 215.52 13.82 215.52 0 201.7 0 181.49 20.2 161.29 0 147.46 0"/><polygon class="cls-2" points="124.78 0 124.78 51.75 90.75 51.75 90.75 0 73.73 0 73.73 51.05 90.75 68.06 141.79 68.06 141.79 0 124.78 0"/><polygon class="cls-2" points="51.05 0 0 0 0 68.06 17.02 68.06 17.02 16.31 51.05 16.31 51.05 68.06 68.06 68.06 68.06 17.02 51.05 0"/><path class="cls-2" d="M346,0h-51V51l17,17h51V17Zm0,51.75h-34V16.31h34Z"/><polygon class="cls-2" points="289.25 16.31 289.25 0 221.19 0 221.19 68.06 289.25 68.06 289.25 51.75 238.21 51.75 238.21 41.95 288.55 41.95 288.55 25.76 238.21 25.76 238.21 16.31 289.25 16.31"/></g></g></svg>